<svg width="1045" height="833" viewBox="0 0 1045 833" fill="none" xmlns="http://www.w3.org/2000/svg">
    <style>
        #stripes {
            animation: stripes 2s ease-in-out alternate-reverse infinite;
            transform-origin: bottom;
            transform-box: fill-box;
        }
        #stripes2 {
            animation: stripes 2s ease-in-out alternate infinite;
            transform-origin: bottom;
            transform-box: fill-box;
        }

        @keyframes stripes {
            0% {
                transform: rotateX(0deg);
            }
            100% {
                transform: rotateX(40deg);
            }
        }
    </style>

    <g id="banner_img 1" clip-path="url(#clip0)">
        <path id="Vector"
            d="M541.45 832.56C303.564 832.56 110.72 819.182 110.72 802.68C110.72 786.178 303.564 772.8 541.45 772.8C779.336 772.8 972.18 786.178 972.18 802.68C972.18 819.182 779.336 832.56 541.45 832.56Z"
            fill="rgba(241,187,85,0.735)" />
        <path id="Vector_2"
            d="M1010.07 95.12C1036.91 126.54 1043.7 166.37 1044.07 204.56C1044.33 231.49 1040.65 260.7 1018.17 280.56C988.58 306.69 931.77 311.84 917.11 345.23C904.11 374.9 934.36 404.75 963.42 425.69C992.48 446.63 1025.85 472.27 1020.42 503.45C1016.98 523.36 998.11 538.99 979.29 552.11C943.51 577.11 903.29 598.98 857.95 609.62C775.69 628.9 686.84 608.94 609.76 578.72C562.31 560.12 507.22 537.29 460.1 556.42C447.66 561.47 437.1 569.1 425.63 575.42C392.28 593.69 351.55 600.42 311.91 606.13C253.81 614.53 192.75 621.54 136.77 606.39C80.79 591.24 32.41 546.93 40.98 499.67C49.06 455.15 100.5 426.13 141.49 395.72C155.95 384.99 170.67 370.77 167.07 355.16C164.21 342.78 150.75 334.16 138.75 326.16C75.59 283.82 29.17 225.37 7.83005 161.28C-2.24995 131.04 -5.88993 96.2 16.6001 70.7C34.7401 50.13 65.8299 40.25 95.3999 32.12C150.27 17.03 206.51 4.28 264.22 0.840002C321.93 -2.6 381.55 3.96 432.78 25.73C457.35 36.18 479.62 49.94 504.43 60C574.87 88.56 657.87 84.72 736.43 80.21C764.5 78.6 793.84 75.74 818.21 63.48C839.21 52.9 851.21 45.32 877.21 44.14C928.17 41.83 980.89 60.9 1010.07 95.12Z"
            fill="rgba(241,187,85,0.735)" />
        <path id="Vector_3"
            d="M629.67 310.36L630.77 312.63L637.9 327.28L712.69 480.85L839.6 791.81L857.74 791.95L730.76 480.85L644.23 303.15L637.9 306.28L630.77 309.81L629.67 310.36Z"
            fill="#535461" />
        <path id="Vector_4"
            d="M407.01 791.95L421.94 791.81L548.86 480.85L621.68 331.31L630.77 312.63L631.88 310.36L630.77 309.81L621.68 305.31L617.31 303.15L532.08 480.85L407.01 791.95Z"
            fill="#535461" />
        <path id="Vector_5" d="M621.67 261.38H637.9V791.95H621.67V261.38Z" fill="#535461" />
        <path id="Vector_6"
            d="M631.64 173.97C637.115 173.975 642.364 176.153 646.236 180.024C650.107 183.896 652.285 189.145 652.29 194.62V202C652.351 204.751 651.861 207.486 650.85 210.045C649.839 212.604 648.328 214.935 646.404 216.902C644.48 218.869 642.182 220.431 639.646 221.498C637.11 222.565 634.386 223.115 631.635 223.115C628.884 223.115 626.16 222.565 623.624 221.498C621.088 220.431 618.79 218.869 616.866 216.902C614.942 214.935 613.431 212.604 612.42 210.045C611.409 207.486 610.919 204.751 610.98 202V194.62C610.988 189.144 613.167 183.895 617.041 180.023C620.914 176.152 626.164 173.975 631.64 173.97V173.97ZM616.15 201.97C616.15 206.081 617.783 210.023 620.69 212.93C623.597 215.837 627.539 217.47 631.65 217.47C635.761 217.47 639.703 215.837 642.61 212.93C645.517 210.023 647.15 206.081 647.15 201.97V194.59C647.15 190.479 645.517 186.537 642.61 183.63C639.703 180.723 635.761 179.09 631.65 179.09C627.539 179.09 623.597 180.723 620.69 183.63C617.783 186.537 616.15 190.479 616.15 194.59V201.97Z"
            fill="#535461" />
        <path id="Vector_7" opacity="0.1"
            d="M532.08 480.85H548.86L621.68 331.31V480.85H637.9V327.28L712.69 480.85H730.76L644.23 303.15L637.9 306.28V261.38H621.68V305.31L617.31 303.15L532.08 480.85Z"
            fill="black" />
        <path id="Vector_8" opacity="0.1"
            d="M610.98 195.36V202C610.919 204.751 611.409 207.486 612.42 210.045C613.431 212.604 614.942 214.935 616.866 216.902C618.79 218.869 621.088 220.431 623.624 221.498C626.16 222.565 628.884 223.115 631.635 223.115C634.386 223.115 637.11 222.565 639.646 221.498C642.182 220.431 644.48 218.869 646.404 216.902C648.328 214.935 649.839 212.604 650.85 210.045C651.861 207.486 652.351 204.751 652.29 202V195.36H647.13V202C647.13 206.111 645.497 210.053 642.59 212.96C639.683 215.867 635.741 217.5 631.63 217.5C627.519 217.5 623.577 215.867 620.67 212.96C617.763 210.053 616.13 206.111 616.13 202V195.36H610.98Z"
            fill="black" />
        <path id="Vector_9" d="M319.59 196.84H943.68V478.64H319.59V196.84Z" fill="#535461" />
        <path id="Vector_10" d="M332.13 205.69H932.61V462.41H332.13V205.69Z" fill="white" />
        <g id="Group" opacity="0.2">
            <path id="Vector_11" d="M844.92 233.6H873.31V246.53H844.92V233.6Z" fill="#F6AA1C" />
        </g>
        <g id="Group_2" opacity="0.2">
            <path id="Vector_12" d="M844.92 258.61H873.31V271.54H844.92V258.61Z" fill="#F6AA1C" />
        </g>
        <g id="Group_3" opacity="0.2">
            <path id="Vector_13" d="M844.92 283.61H873.31V296.54H844.92V283.61Z" fill="#F6AA1C" />
        </g>
        <g id="Group_4" opacity="0.2">
            <path id="Vector_14" d="M844.92 308.61H873.31V321.54H844.92V308.61Z" fill="#F6AA1C" />
        </g>
        <g id="Group_5" opacity="0.2">
            <path id="Vector_15" d="M844.92 333.62H873.31V346.55H844.92V333.62Z" fill="#F6AA1C" />
        </g>
        <g id="Group_6" opacity="0.2">
            <path id="Vector_16" d="M844.92 358.62H873.31V371.55H844.92V358.62Z" fill="#F6AA1C" />
        </g>
        <g id="Group_7" opacity="0.2">
            <path id="Vector_17" d="M844.92 383.62H873.31V396.55H844.92V383.62Z" fill="#F6AA1C" />
        </g>
        <g id="Group_8" opacity="0.2">
            <path id="Vector_18" d="M844.92 408.62H873.31V421.55H844.92V408.62Z" fill="#F6AA1C" />
        </g>
        <g id="Group_9" opacity="0.2">
            <path id="Vector_19" d="M791.47 421.56H819.86V434.49H791.47V421.56Z" fill="#F6AA1C" />
        </g>
        <g id="Group_10" opacity="0.2">
            <path id="Vector_20" d="M741.46 421.56H769.85V434.49H741.46V421.56Z" fill="#F6AA1C" />
        </g>
        <g id="Group_11" opacity="0.2">
            <path id="Vector_21" d="M691.46 421.56H719.85V434.49H691.46V421.56Z" fill="#F6AA1C" />
        </g>
        <g id="Group_12" opacity="0.2">
            <path id="Vector_22" d="M641.45 421.56H669.84V434.49H641.45V421.56Z" fill="#F6AA1C" />
        </g>
        <g id="Group_13" opacity="0.2">
            <path id="Vector_23" d="M591.45 421.56H619.84V434.49H591.45V421.56Z" fill="#F6AA1C" />
        </g>
        <g id="Group_14" opacity="0.2">
            <path id="Vector_24" d="M541.44 421.56H569.83V434.49H541.44V421.56Z" fill="#F6AA1C" />
        </g>
        <g id="Group_15" opacity="0.2">
            <path id="Vector_25" d="M491.44 421.56H519.83V434.49H491.44V421.56Z" fill="#F6AA1C" />
        </g>
        <g id="Group_16" opacity="0.2">
            <path id="Vector_26" d="M441.43 421.56H469.82V434.49H441.43V421.56Z" fill="#F6AA1C" />
        </g>
        <g id="Group_17" opacity="0.2">
            <path id="Vector_27" d="M391.43 421.56H419.82V434.49H391.43V421.56Z" fill="#F6AA1C" />
        </g>
        <g id="stripes2">
            <path id="Vector_28" d="M741.46 290.08H769.85V408.63H741.46V290.08Z" fill="#F6AA1C" />
            <path id="Vector_29" d="M641.45 274.92H669.84V408.62H641.45V274.92Z" fill="#F6AA1C" />
            <g id="Group_18">
                <path id="Vector_30" opacity="0.2" d="M541.44 308.61H569.83V408.62H541.44V308.61Z" fill="#F6AA1C" />
            </g>
            <g id="Group_19" opacity="0.2">
                <path id="Vector_31" d="M491.44 308.61H519.83V408.62H491.44V308.61Z" fill="#F6AA1C" />
            </g>
        </g>
        <path id="Vector_32"
            d="M135.26 407.15C135.26 407.15 122.54 386.23 125.92 353.41C129.3 320.59 141.53 267.47 141.53 267.47C141.53 267.47 136.22 237.71 165.02 233.53C165.02 233.53 182.92 230.2 195.72 222.15C200.48 219.15 204.53 215.52 206.72 211.15C206.72 211.15 206.89 211.64 207.22 212.54C207.503 212.09 207.763 211.626 208 211.15C208 211.15 208.07 211.33 208.18 211.65L213.07 204.03C213.07 204.03 213.74 204.74 214.87 205.91C216.837 203.087 218.512 200.071 219.87 196.91C218.654 196.616 217.461 196.235 216.3 195.77C215.19 195.403 214.189 194.763 213.39 193.91C212.689 192.937 212.236 191.808 212.07 190.62C211.29 186.819 211.068 182.925 211.41 179.06C211.68 176.06 212.29 173.06 212.08 170.01C211.86 166.76 210.71 163.62 210.55 160.36C210.27 154.62 213.12 149.16 216.64 144.61C218.74 141.9 221.1 139.38 222.92 136.48C224.5 133.96 225.65 131.18 227.35 128.73C231.35 123.03 238.02 119.67 244.86 118.48C251.7 117.29 258.74 118.03 265.59 119.16C271.59 120.16 277.59 121.61 283.59 121.96C288.83 122.26 293.1 120.49 297.9 123.96C299.49 125.132 300.81 126.631 301.773 128.356C302.735 130.081 303.317 131.992 303.48 133.96C303.558 134.63 303.507 135.309 303.33 135.96C303.047 136.635 302.712 137.286 302.33 137.91C300.2 142.11 303.44 147.1 303.02 151.79C302.764 153.864 301.815 155.79 300.326 157.257C298.838 158.724 296.897 159.645 294.82 159.87C295.01 160.27 295.22 160.66 295.4 161.07C298.056 167.07 299.25 173.615 298.885 180.167C298.52 186.718 296.606 193.09 293.3 198.758C289.994 204.426 285.391 209.229 279.868 212.772C274.345 216.315 268.06 218.498 261.53 219.14L259.67 220.57C255.47 223.82 250.75 227.71 246.2 231.94L246.29 232.01L247.03 231.59C248.415 232.686 249.872 233.688 251.39 234.59C255.6 237.17 262.39 240.52 270.03 240.9C270.03 240.9 283.71 248.15 288.42 272.06C295.18 278.12 309.65 289.06 328.77 291.91C355.64 295.91 388.77 297.22 388.77 297.22C388.77 297.22 389.04 297.7 389.42 298.58L392.48 298.02C392.48 298.02 392.48 298.39 392.61 299.02L393.81 298.48C403.3 294.33 422.26 288.28 424.66 304.95C427.88 327.31 406.56 324.74 406.56 324.74C402.344 323.138 398.024 321.825 393.63 320.81L392.44 320.58C392.238 321.163 391.955 321.715 391.6 322.22H388.7C387.693 324.304 386.476 326.281 385.07 328.12L317.49 326.64C317.49 326.64 305.94 324.12 295.28 325.72C299.93 360.48 305.42 398.6 305.42 398.6C305.42 398.6 316.92 458.97 308.87 465.28C304.198 463.721 299.436 462.446 294.61 461.46C294.537 465.19 294.142 468.908 293.43 472.57L288.28 506.28C288.28 506.28 286.28 540.72 279.59 561.28L273.69 589.38L268.75 610.62L265.97 646.67C262.152 661.942 259.392 677.459 257.71 693.11C255.1 717.33 240.93 756.47 239.04 761.62C243.88 768.47 253.82 780.09 266.29 781.29C284.09 783.01 284.52 793.74 272.08 797.6C259.64 801.46 233.46 797.6 233.46 797.6L196.54 788.47C197.65 795.28 198.23 800.66 197.42 801.24C195.06 802.96 159.23 812.24 157.94 797.38C157.84 796.153 157.75 794.963 157.67 793.81C157.137 784.291 158.409 774.756 161.42 765.71C161.71 764.82 161.97 763.92 162.2 763.02C161.669 762.426 161.181 761.794 160.74 761.13C160.74 761.13 158.16 721.01 156.23 706.63C156.08 705.48 155.98 704.08 155.93 702.5C155.04 685.26 161.33 639.91 161.33 639.91C161.33 639.91 169.1 610.41 168.81 596.85C168.765 595.723 168.574 594.607 168.24 593.53C168.24 593.53 168.24 593.26 168.34 592.81C168.34 592.62 168.25 592.42 168.19 592.24C168.19 592.24 172.13 565.24 171.58 549.18C171.503 546.784 171.168 544.404 170.58 542.08C169.955 539.029 169.636 535.924 169.63 532.81C169.13 521.81 169.71 502.81 170.51 484.99C170.42 484.69 170.33 484.39 170.26 484.04C170.099 482.621 170.266 481.184 170.75 479.84C170.81 478.69 170.86 477.55 170.92 476.42C170.59 475.29 170.32 474.09 170.08 472.85H169.56V472.92C169.56 472.92 135.94 471.31 128.21 462.3C128.21 462.3 136.02 438.03 140.35 418.3L135.26 407.15ZM280.14 331.66L280.67 331.47C279.82 328.47 278.81 324.98 277.67 321.32C278.64 325.28 279.48 328.88 280.14 331.66ZM246.02 232.17L245.87 232.31L246.03 232.22L246.02 232.17ZM204.02 752.69C205.83 746.46 213.02 721.06 212.79 708.95C212.74 707.897 212.555 706.856 212.24 705.85C211.573 703.655 211.236 701.374 211.24 699.08C210.52 686.44 215.36 663.79 215.36 663.79C215.36 663.79 226.19 633.24 225.36 608.98C225.36 608.37 225.29 607.76 225.25 607.15C225.07 604.85 224.93 602.36 224.83 599.73V599.68C224.42 590.31 224.51 579.03 224.78 568.51L224.84 568.12C225.21 554.19 225.9 541.65 226.19 536.69C225.19 543.86 218.79 588.49 216.03 595.79C216.03 595.79 214.52 616.38 207.66 633.79L200.14 679.05C200.14 679.05 198.21 732.91 195 748.14C193.56 754.92 192.34 759.49 191.43 762.47C192.73 768.54 194.83 778.71 196.24 787.13C197.07 781.64 199.99 760.72 204.01 752.69H204.02Z"
            fill="url(#paint0_linear)" />
        <path id="Vector_33"
            d="M236.17 754.08C236.17 754.08 248.72 776.83 266.37 778.53C284.02 780.23 284.44 790.86 272.11 794.69C259.78 798.52 233.83 794.69 233.83 794.69L196.83 785.55C196.83 785.55 201.3 748.97 207.25 747.06C213.2 745.15 236.17 754.08 236.17 754.08Z"
            fill="#2A2A2B" />
        <path id="Vector_34"
            d="M191.07 754.5C191.07 754.5 200.43 796.6 198.07 798.31C195.71 800.02 160.22 809.15 158.94 794.48C158.84 793.247 158.75 792.067 158.67 790.94C158.146 781.505 159.408 772.056 162.39 763.09C163.39 760.09 164.09 756.88 163.83 754.5C163.24 748.55 191.07 754.5 191.07 754.5Z"
            fill="#2A2A2B" />
        <path id="Vector_35"
            d="M202.68 221.49C202.68 221.49 231.39 292.01 226.28 269.36C222.9 254.36 244.75 234.43 259.86 222.72C267.55 216.72 273.49 212.91 273.49 212.91C273.49 212.91 219.59 150.07 223.41 177.18C224.458 184.605 223.441 192.175 220.47 199.06C214.52 213.2 202.68 221.49 202.68 221.49Z"
            fill="#FFB9B9" />
        <path id="Vector_36" opacity="0.1"
            d="M386.07 321.67C387.59 321.28 390.07 321.53 392.64 322.08C394.94 316.28 393.19 302.53 392.82 299.94C389.62 301.35 387.5 302.53 387.5 302.53L386.07 321.67Z"
            fill="black" />
        <path id="Vector_37"
            d="M385.98 300.51L391.51 299.51C391.51 299.51 394.34 318.51 390.64 323.51H384.28L385.98 300.51Z"
            fill="#F2C56F" />
        <path id="Vector_38"
            d="M275.07 335.18C275.07 335.18 291.97 325.07 293.99 337.83C296.01 350.59 298.67 372.39 298.67 372.39L303.35 400.14L309.41 455.74L308.56 465.2C308.56 465.2 290.56 459.14 286.34 461.27C282.12 463.4 278.68 437.88 278.68 437.88L271.68 411.51L270.62 355.59L275.07 335.18Z"
            fill="#2A2A2B" />
        <path id="Vector_39" opacity="0.1"
            d="M275.07 335.18C275.07 335.18 291.97 325.07 293.99 337.83C296.01 350.59 298.67 372.39 298.67 372.39L303.35 400.14L309.41 455.74L308.56 465.2C308.56 465.2 290.56 459.14 286.34 461.27C282.12 463.4 278.68 437.88 278.68 437.88L271.68 411.51L270.62 355.59L275.07 335.18Z"
            fill="black" />
        <path id="Vector_40"
            d="M284.18 269.68C284.18 269.68 301.72 289.46 328.35 293.44C354.98 297.42 387.84 298.71 387.84 298.71C387.84 298.71 396.13 313.54 384.17 329.33L317.17 327.85C317.17 327.85 302.34 324.63 290.85 327.85L284.18 269.68Z"
            fill="#2A2A2B" />
        <path id="Vector_41" opacity="0.05"
            d="M284.18 269.68C284.18 269.68 301.72 289.46 328.35 293.44C354.98 297.42 387.84 298.71 387.84 298.71C387.84 298.71 396.13 313.54 384.17 329.33L317.17 327.85C317.17 327.85 302.34 324.63 290.85 327.85L284.18 269.68Z"
            fill="black" />
        <path id="Vector_42" opacity="0.1"
            d="M223.31 198.45C229.85 212.45 241.22 222.77 257.71 222.77C258.44 222.77 259.15 222.77 259.86 222.72C267.55 216.72 273.49 212.91 273.49 212.91C273.49 212.91 219.59 150.07 223.41 177.18C224.59 185.48 225.94 192.22 223.31 198.45Z"
            fill="black" />
        <path id="Vector_43"
            d="M216.63 180.4C216.636 188.526 219.051 196.468 223.57 203.221C228.089 209.975 234.509 215.237 242.019 218.342C249.528 221.447 257.789 222.256 265.758 220.666C273.727 219.076 281.046 215.16 286.789 209.411C292.532 203.662 296.442 196.34 298.024 188.369C299.606 180.399 298.789 172.138 295.676 164.632C292.564 157.125 287.296 150.71 280.538 146.198C273.78 141.685 265.836 139.278 257.71 139.28C252.309 139.269 246.959 140.326 241.968 142.389C236.976 144.453 232.442 147.482 228.624 151.303C224.807 155.124 221.782 159.661 219.724 164.655C217.666 169.648 216.614 174.999 216.63 180.4Z"
            fill="#FFB9B9" />
        <path id="Vector_44"
            d="M191.52 431.5C191.52 431.5 283.16 439.59 286.52 427.89C289.88 416.19 277.17 384.51 277.17 384.51L281.31 340.28L281.46 338.59C281.46 338.59 269.98 290.74 270.4 286.92C270.8 283.48 251.92 243.33 248.04 235.12C247.58 234.17 247.34 233.65 247.34 233.65L246.61 234.07L246.29 234.26L241.8 236.88L224.07 232.68L202.7 221.49L200.7 343.9L191.52 431.5Z"
            fill="#F2C56F" />
        <path id="Vector_45" opacity="0.1"
            d="M239.15 235.13C239.15 235.13 245.42 233.43 247.87 239.7C248.829 242.395 249.965 245.024 251.27 247.57L253.71 262.13L258.18 285.13L261.48 386.88L259.99 404.95L251.8 390.39L250.31 295.28V283.45C249.83 273.222 247.521 263.163 243.49 253.75L242.35 251.08L235.23 241.93L239.15 235.13Z"
            fill="black" />
        <path id="Vector_46"
            d="M240.42 233.85C240.42 233.85 246.7 232.15 249.14 238.42C250.101 241.116 251.24 243.745 252.55 246.29L254.99 260.86L259.46 283.86L262.75 385.61L261.26 403.69L253.07 389.08L251.58 294.03V282.17C251.091 271.943 248.781 261.886 244.76 252.47L243.61 249.8L236.49 240.66L240.42 233.85Z"
            fill="#2A2A2B" />
        <path id="Vector_47" opacity="0.1"
            d="M213.63 207.59C213.63 207.59 235.32 230.59 242.98 233.32C242.98 233.32 239.15 250.76 235.32 254.16C235.32 254.16 212.56 230.95 208.53 229.07L205.15 220.8L213.63 207.59Z"
            fill="black" />
        <path id="Vector_48"
            d="M213.63 206.28C213.63 206.28 235.32 229.28 242.98 232.01C242.98 232.01 239.15 249.45 235.32 252.85C235.32 252.85 212.56 229.64 208.53 227.76L205.15 219.5L213.63 206.28Z"
            fill="#F2C56F" />
        <path id="Vector_49" opacity="0.1"
            d="M246.07 233.65L246.29 234.25L253.24 252.88L265.67 288.03C265.67 288.03 265.78 288.39 266 289.03C268.06 295.43 279.13 330.16 281.31 340.25L281.46 338.56C281.46 338.56 269.98 290.71 270.4 286.89C270.8 283.45 251.92 243.3 248.04 235.09C247.42 234.67 246.94 234.31 246.61 234.04L246.07 233.65Z"
            fill="black" />
        <path id="Vector_50"
            d="M247.34 233.64L254.52 252.88L266.95 288.03C266.95 288.03 267.06 288.39 267.28 289.03C269.46 295.85 281.89 334.78 282.89 341.9C284.02 349.72 299.65 391.99 299.65 391.99L308.58 465.18C316.58 458.97 305.22 399.18 305.22 399.18C305.22 399.18 292.46 310.51 289.44 281.01C286.42 251.51 270.13 242.89 270.13 242.89C262.61 242.51 255.83 239.19 251.66 236.64C250.154 235.738 248.711 234.736 247.34 233.64V233.64Z"
            fill="#2A2A2B" />
        <path id="Vector_51" opacity="0.1"
            d="M157.29 704.53C159.2 718.78 161.75 758.53 161.75 758.53C170.68 771.92 190.46 764.69 190.46 764.69C190.46 764.69 192.58 760.69 195.77 745.55C198.96 730.41 200.87 677.08 200.87 677.08L208.32 632.28C215.12 615.05 216.61 594.64 216.61 594.64C219.61 586.77 226.82 535.1 226.82 535.1C226.82 535.1 223.82 581.45 225.75 605.91C227.68 630.37 215.98 663.28 215.98 663.28C215.98 663.28 209.38 694.12 212.79 703.69C216.2 713.26 204.28 752.8 204.28 752.8C205.28 764.29 239.14 759.61 239.14 759.61C239.14 759.61 255.07 716.86 257.86 691.13C259.532 675.627 262.268 660.257 266.05 645.13L268.81 609.4L273.71 588.28L279.55 560.43C286.15 540.02 288.16 505.89 288.16 505.89L293.27 472.4C296.61 455.84 292.27 436.4 289.39 426.23C288.14 421.82 287.14 419.13 287.14 419.13C284.21 421.21 267.43 423.65 258.75 425.63C254 426.725 249.114 427.116 244.25 426.79C222.305 425.048 200.596 421.067 179.46 414.91C178.03 414.48 177.27 414.23 177.27 414.23L176.82 418.06L175.76 427.18L173.87 443.37C173.87 443.37 168.13 529.7 171.53 541.37C174.93 553.04 169.19 592.37 169.19 592.37C172.38 601.7 162.39 639.62 162.39 639.62C162.39 639.62 155.37 690.28 157.29 704.53Z"
            fill="black" />
        <path id="Vector_52"
            d="M157.29 703.28C159.2 717.53 161.75 757.28 161.75 757.28C170.68 770.68 190.46 763.44 190.46 763.44C190.46 763.44 192.58 759.44 195.77 744.31C198.96 729.18 200.87 675.83 200.87 675.83L208.32 630.97C215.07 613.74 216.61 593.28 216.61 593.28C219.61 585.41 226.82 533.74 226.82 533.74C226.82 533.74 223.82 580.09 225.75 604.55C227.68 629.01 215.98 661.96 215.98 661.96C215.98 661.96 209.38 692.8 212.79 702.37C216.2 711.94 204.28 751.49 204.28 751.49C205.28 762.97 239.14 758.29 239.14 758.29C239.14 758.29 255.07 715.59 257.86 689.85C259.532 674.347 262.268 658.977 266.05 643.85L268.81 608.13L273.71 587.08L279.55 559.23C286.15 538.81 288.16 504.68 288.16 504.68L293.27 471.19C296.61 454.63 292.27 435.19 289.39 425.02C288.14 420.62 287.14 417.93 287.14 417.93C284.21 420.01 267.43 422.44 258.75 424.42C254 425.52 249.114 425.911 244.25 425.58C222.305 423.838 200.596 419.857 179.46 413.7L177.27 413.03L176.82 416.85L175.76 425.98L173.87 442.17C173.87 442.17 168.13 528.49 171.53 540.17C174.93 551.85 169.19 591.17 169.19 591.17C172.38 600.49 162.39 638.41 162.39 638.41C162.39 638.41 155.37 689.01 157.29 703.28Z"
            fill="#2A2A2B" />
        <path id="Vector_53" opacity="0.1"
            d="M216.63 180.4C216.617 187.585 218.493 194.648 222.07 200.88C228.47 202.01 235.28 200.76 240.07 196.53C243.35 193.64 245.47 189.69 248.29 186.34C250.115 184.281 252.076 182.347 254.16 180.55C255.52 179.195 257.082 178.058 258.79 177.18C259.649 176.746 260.596 176.515 261.558 176.505C262.52 176.494 263.472 176.705 264.34 177.12C266.6 178.38 267.34 181.19 268.65 183.43C269.635 185.353 271.321 186.824 273.36 187.54C274.379 187.866 275.476 187.856 276.49 187.513C277.503 187.169 278.38 186.509 278.99 185.63C280.38 183.24 279.36 179.51 281.69 178.05C282.305 177.747 282.939 177.486 283.59 177.27C286.59 175.91 286.94 171.88 287.2 168.58C287.33 166.96 287.68 165.13 289.04 164.26C290.4 163.39 292.19 163.83 293.81 163.86C294.289 163.879 294.769 163.842 295.24 163.75C291.421 155.141 284.761 148.106 276.374 143.821C267.987 139.536 258.384 138.263 249.17 140.213C239.956 142.164 231.692 147.22 225.762 154.536C219.831 161.851 216.593 170.982 216.59 180.4H216.63Z"
            fill="black" />
        <path id="Vector_54"
            d="M297.76 126.96C299.339 128.125 300.65 129.615 301.604 131.33C302.558 133.045 303.133 134.944 303.29 136.9C303.366 137.554 303.315 138.216 303.14 138.85C302.861 139.523 302.526 140.172 302.14 140.79C300.04 144.96 303.25 149.9 302.84 154.55C302.562 156.747 301.496 158.768 299.841 160.239C298.186 161.71 296.054 162.531 293.84 162.55C292.22 162.55 290.44 162.07 289.07 162.95C287.7 163.83 287.36 165.65 287.23 167.27C286.97 170.57 286.64 174.6 283.63 175.96C282.981 176.181 282.347 176.442 281.73 176.74C279.39 178.2 280.41 181.94 279.02 184.32C278.41 185.199 277.533 185.859 276.52 186.203C275.506 186.546 274.409 186.556 273.39 186.23C271.355 185.517 269.672 184.049 268.69 182.13C267.4 179.88 266.63 177.13 264.37 175.82C263.503 175.401 262.552 175.188 261.589 175.196C260.627 175.205 259.679 175.436 258.82 175.87C257.112 176.752 255.55 177.892 254.19 179.25C252.104 181.044 250.143 182.979 248.32 185.04C245.5 188.38 243.38 192.33 240.1 195.22C233.92 200.65 224.46 201.22 216.84 198.09C215.74 197.723 214.748 197.091 213.95 196.25C213.254 195.283 212.805 194.16 212.64 192.98C211.866 189.215 211.644 185.358 211.98 181.53C212.25 178.53 212.86 175.53 212.65 172.53C212.44 169.31 211.29 166.2 211.13 162.98C210.85 157.28 213.68 151.87 217.13 147.36C219.21 144.67 221.55 142.18 223.35 139.3C224.92 136.8 226.06 134.05 227.74 131.63C231.68 125.98 238.32 122.63 245.1 121.46C251.88 120.29 258.85 121.01 265.64 122.14C271.56 123.14 277.52 124.56 283.52 124.91C288.77 125.28 293 123.51 297.76 126.96Z"
            fill="#472727" />
        <path id="Vector_55" opacity="0.1"
            d="M247.34 233.64L254.52 252.88L266.95 288.03C266.95 288.03 267.06 288.39 267.28 289.03V289.08L251.64 236.62C250.142 235.724 248.705 234.728 247.34 233.64V233.64Z"
            fill="black" />
        <path id="Vector_56"
            d="M169.72 453.83C169.72 453.83 168.98 477.11 175.25 482.96L191.94 451.49L177.94 444.68L169.72 453.83Z"
            fill="#FFB9B9" />
        <path id="Vector_57" opacity="0.1"
            d="M130.76 462.33C138.42 471.26 171.76 472.86 171.76 472.86L204.76 420.86C204.76 420.86 212.57 415.44 227.24 391.03C241.91 366.62 241.43 347.82 240.61 333.78C239.79 319.74 230.61 279.39 230.61 279.39C229.18 270.31 208.61 213.39 208.61 213.39C206.45 217.7 202.43 221.3 197.73 224.27C185.03 232.27 167.3 235.55 167.3 235.55C138.74 239.7 144.01 269.2 144.01 269.2C144.01 269.2 143.69 383.87 145.45 397.59C147.21 411.31 130.76 462.33 130.76 462.33Z"
            fill="black" />
        <path id="Vector_58" d="M169.29 458.29L170.25 466.8L181.84 462.55L190.34 449.68L183.96 444.68L169.29 458.29Z"
            fill="#F2C56F" />
        <path id="Vector_59" opacity="0.1"
            d="M169.7 425.33L175.76 425.95L234.19 431.79C243.573 432.732 253.044 432.267 262.29 430.41L289.39 424.99C288.14 420.59 287.14 417.9 287.14 417.9C284.21 419.98 267.43 422.41 258.75 424.39C254 425.49 249.114 425.881 244.25 425.55C222.305 423.808 200.596 419.827 179.46 413.67L176.82 416.82L169.7 425.33Z"
            fill="black" />
        <g id="Group_20" opacity="0.1">
            <path id="Vector_60" opacity="0.1"
                d="M286.53 418.22C286.723 418.125 286.91 418.018 287.09 417.9C287.09 417.9 287.09 417.96 287.15 418.05L286.53 418.22Z"
                fill="black" />
            <path id="Vector_61" opacity="0.1"
                d="M162.34 638.4C162.34 638.4 172.34 600.48 169.14 591.16C169.14 591.16 174.88 551.86 171.47 540.16C168.06 528.46 173.82 442.16 173.82 442.16L175.71 425.97L176.77 416.84L177.21 413.02L179.41 413.69L180.77 414.09L180.6 415.57L179.54 424.69L177.65 440.88C177.65 440.88 171.91 527.21 175.3 538.88C178.69 550.55 172.97 589.88 172.97 589.88C176.16 599.21 166.17 637.12 166.17 637.12C166.17 637.12 159.17 687.74 161.06 701.98C162.95 716.22 165.53 755.98 165.53 755.98C172.05 765.77 184.36 764.55 190.53 763.18L190.42 763.42C190.42 763.42 170.64 770.66 161.71 757.26C161.71 757.26 159.16 717.49 157.24 703.26C155.32 689.03 162.34 638.4 162.34 638.4Z"
                fill="black" />
            <path id="Vector_62" opacity="0.1"
                d="M212.73 702.41C209.33 692.84 215.92 662 215.92 662C215.92 662 227.61 629 225.7 604.59C224.9 594.4 224.95 580.42 225.29 567.59C228 551.04 230.6 532.59 230.6 532.59C230.6 532.59 227.6 578.94 229.52 603.39C231.44 627.84 219.75 660.81 219.75 660.81C219.75 660.81 213.15 691.64 216.56 701.21C219.97 710.78 208.07 750.28 208.07 750.28C208.92 759.48 230.77 758.28 239.44 757.48L239.11 758.36C239.11 758.36 205.3 763.04 204.24 751.56C204.22 751.53 216.13 711.98 212.73 702.41Z"
                fill="black" />
        </g>
        <path id="Vector_63"
            d="M129.49 462.33C137.14 471.26 170.49 472.86 170.49 472.86L203.49 420.86C203.49 420.86 211.3 415.44 225.98 391.03C240.66 366.62 240.16 347.82 239.35 333.78C238.54 319.74 229.35 279.39 229.35 279.39C227.92 270.31 207.35 213.39 207.35 213.39C205.2 217.7 201.18 221.3 196.47 224.27C183.77 232.27 166.04 235.55 166.04 235.55C137.49 239.7 142.76 269.2 142.76 269.2C142.76 269.2 142.44 383.87 144.2 397.59C145.96 411.31 129.49 462.33 129.49 462.33Z"
            fill="#2A2A2B" />
        <path id="Vector_64" opacity="0.1"
            d="M201.24 241.61L208.42 244.28L203.64 247.63L239.34 333.75C238.51 319.75 229.34 279.36 229.34 279.36C227.91 270.28 207.34 213.36 207.34 213.36C205.19 217.67 201.17 221.27 196.46 224.24L201.24 241.61Z"
            fill="black" />
        <path id="Vector_65" opacity="0.1" d="M192.63 395.03L156.11 385.62L151.32 400.45L188.64 409.55L192.63 395.03Z"
            fill="black" />
        <path id="Vector_66" opacity="0.1"
            d="M171.74 247.67C171.74 247.67 188.33 263.28 182.07 298.07C175.81 332.86 165.8 370.63 165.8 370.63L192.8 445.43C192.8 445.43 173.98 465.05 164.73 467.43L137.78 407.62C137.78 407.62 125.18 386.89 128.53 354.36C131.88 321.83 144 269.19 144 269.19C144 269.19 143.99 237.15 171.74 247.67Z"
            fill="black" />
        <path id="Vector_67"
            d="M170.47 247.67C170.47 247.67 187.07 263.28 180.83 298.07C174.59 332.86 164.57 370.63 164.57 370.63L191.57 445.43C191.57 445.43 172.75 465.05 163.5 467.43L136.5 407.62C136.5 407.62 123.9 386.89 127.25 354.36C130.6 321.83 142.72 269.19 142.72 269.19C142.72 269.19 142.72 237.15 170.47 247.67Z"
            fill="#2A2A2B" />
        <path id="Vector_68" opacity="0.1"
            d="M190.67 447.02C190.67 447.02 169.62 476.16 171.21 483.92C172.8 491.68 178.97 487.53 178.97 487.53L187.26 476.16L194.71 454.89C194.71 454.89 193.98 445.71 190.67 447.02Z"
            fill="black" />
        <g id="stripes">
            <g id="Group 1">
                <path id="Vector_69" d="M793.04 327.04H821.43V408.08H793.04V327.04Z" fill="#F6AA1C" />
                <path id="Vector_70" d="M693.03 258.07H721.42V408.09H693.03V258.07Z" fill="#F6AA1C" />
                <path id="Vector_71" d="M593.02 246H621.41V408.09H593.02V246Z" fill="#F6AA1C" />
                <path id="Vector_72" opacity="0.2" d="M443 308.07H471.39V408.08H443V308.07Z" fill="#F6AA1C" />
                <g id="Group_21" opacity="0.2">
                    <path id="Vector_73" d="M393 308.07H421.39V408.08H393V308.07Z" fill="#F6AA1C" />
                </g>
            </g>
        </g>
        <path id="Vector_74" opacity="0.1"
            d="M193.22 447.02C193.22 447.02 172.22 476.16 173.76 483.92C175.3 491.68 181.52 487.53 181.52 487.53L189.82 476.16L197.26 454.89C197.26 454.89 196.53 445.71 193.22 447.02Z"
            fill="black" />
        <path id="Vector_75"
            d="M191.94 447.02C191.94 447.02 170.94 476.16 172.49 483.92C174.04 491.68 180.25 487.53 180.25 487.53L188.54 476.16L195.98 454.89C195.98 454.89 195.26 445.71 191.94 447.02Z"
            fill="#2A2A2B" />
        <path id="Vector_76" d="M423.08 308.39L666.18 323.35V328.09L417.9 318.24L423.08 308.39Z" fill="#535461" />
        <path id="Vector_77"
            d="M386.07 321.67C387.59 321.28 390.07 321.53 392.64 322.08C396.993 323.085 401.273 324.385 405.45 325.97C405.45 325.97 426.58 328.52 423.39 306.36C421.02 289.84 402.23 295.84 392.82 299.94C389.62 301.35 387.5 302.53 387.5 302.53L386.07 321.67Z"
            fill="#FFB9B9" />
    </g>
    <defs>
        <linearGradient id="paint0_linear" x1="275.2" y1="805.73" x2="275.2" y2="117.86" gradientUnits="userSpaceOnUse">
            <stop stop-color="#808080" stop-opacity="0.25" />
            <stop offset="0.54" stop-color="#808080" stop-opacity="0.12" />
            <stop offset="1" stop-color="#808080" stop-opacity="0.1" />
        </linearGradient>
        <clipPath id="clip0">
            <rect width="1044.13" height="832.56" fill="white" transform="matrix(-1 0 0 1 1044.13 0)" />
        </clipPath>
    </defs>
</svg>